HIERARCHY
ROOT SpineBase
{
  OFFSET 0.000000 0.000000 0.000000
  CHANNELS 6 Xposition Yposition Zposition Zrotation Xrotation Yrotation
  JOINT SpineMid
  {
    OFFSET 0.000000 31.384777 0.000000
    CHANNELS 3 Zrotation Xrotation Yrotation
    JOINT SpineShoulder
    {
      OFFSET 0.246111 23.230714 -0.703584
      CHANNELS 3 Zrotation Xrotation Yrotation
      JOINT Neck
      {
        OFFSET 0.192042 7.701073 -0.569292
        CHANNELS 3 Zrotation Xrotation Yrotation
        JOINT Head
        {
          OFFSET 1.602895 10.902281 1.048288
          CHANNELS 3 Zrotation Xrotation Yrotation
          End Site
          {
            OFFSET 0 0 0
          }
        }
      }
      JOINT ShoulderLeft
      {
        OFFSET -13.348914 -2.456472 -9.973964
        CHANNELS 3 Zrotation Xrotation Yrotation
        JOINT ElbowLeft
        {
          OFFSET -8.965763 -26.709209 -1.815584
          CHANNELS 3 Zrotation Xrotation Yrotation
          JOINT WristLeft
          {
            OFFSET -4.064610 -24.279304 -5.466260
            CHANNELS 3 Zrotation Xrotation Yrotation
            JOINT HandLeft
            {
              OFFSET -1.274119 -7.340101 0.248706
              CHANNELS 3 Zrotation Xrotation Yrotation
              JOINT HandTipLeft
              {
                OFFSET -1.558530 -6.948742 -0.510450
                CHANNELS 3 Zrotation Xrotation Yrotation
                End Site
                {
                  OFFSET 0 0 0
                }
              }
              JOINT ThumbLeft
              {
                OFFSET -2.816274 -0.445124 -2.205035
                CHANNELS 3 Zrotation Xrotation Yrotation
                End Site
                {
                  OFFSET 0 0 0
                }
              }
            }
          }
        }
      }
      JOINT ShoulderRight
      {
        OFFSET 16.495046 -3.954049 7.524511
        CHANNELS 3 Zrotation Xrotation Yrotation
        JOINT ElbowRight
        {
          OFFSET 3.458929 -27.113433 3.273308
          CHANNELS 3 Zrotation Xrotation Yrotation
          JOINT WristRight
          {
            OFFSET 5.545560 -24.272769 -2.551717
            CHANNELS 3 Zrotation Xrotation Yrotation
            JOINT HandRight
            {
              OFFSET 0.938074 -8.362181 -2.752652
              CHANNELS 3 Zrotation Xrotation Yrotation
              JOINT HandTipRight
              {
                OFFSET 1.792823 -7.405668 0.503516
                CHANNELS 3 Zrotation Xrotation Yrotation
                End Site
                {
                  OFFSET 0 0 0
                }
              }
              JOINT ThumbRight
              {
                OFFSET -2.993708 -0.549893 -5.576713
                CHANNELS 3 Zrotation Xrotation Yrotation
                End Site
                {
                  OFFSET 0 0 0
                }
              }
            }
          }
        }
      }
    }
  }
  JOINT HipLeft
  {
    OFFSET -5.182020 1.758629 -6.810567
    CHANNELS 3 Zrotation Xrotation Yrotation
    JOINT KneeLeft
    {
      OFFSET -6.091024 -30.470419 -4.593953
      CHANNELS 3 Zrotation Xrotation Yrotation
      JOINT AnkleLeft
      {
        OFFSET -6.805794 -41.213019 7.040855
        CHANNELS 3 Zrotation Xrotation Yrotation
        JOINT FootLeft
        {
          OFFSET 4.057651 -5.440487 -9.638701
          CHANNELS 3 Zrotation Xrotation Yrotation
          End Site
          {
            OFFSET 0 0 0
          }
        }
      }
    }
  }
  JOINT HipRight
  {
    OFFSET 6.916611 0.272248 -0.933997
    CHANNELS 3 Zrotation Xrotation Yrotation
    JOINT KneeRight
    {
      OFFSET 1.055111 -34.044494 1.946340
      CHANNELS 3 Zrotation Xrotation Yrotation
      JOINT AnkleRight
      {
        OFFSET -1.017689 -38.740660 6.844375
        CHANNELS 3 Zrotation Xrotation Yrotation
        JOINT FootRight
        {
          OFFSET 5.285900 -4.822528 -11.092831
          CHANNELS 3 Zrotation Xrotation Yrotation
          End Site
          {
            OFFSET 0 0 0
          }
        }
      }
    }
  }
}
MOTION
Frames: 12
Frame Time: 0.033333
-78.065606 80.825869 341.304499 -0.000000 0.000000 -25.906863 -0.000000 0.000000 25.906863 -0.000000 0.000000 0.000000 -0.000000 0.000000 0.000000 0.000000 0.000000 0.000000 -0.000000 0.000000 0.000000 -0.000000 0.000000 0.000000 -0.000000 0.000000 0.000000 -0.000000 0.000000 0.000000 0.000000 0.000000 0.000000 0.000000 0.000000 0.000000 -0.000000 0.000000 0.000000 -0.000000 0.000000 0.000000 -0.000000 0.000000 0.000000 -0.000000 0.000000 0.000000 0.000000 0.000000 0.000000 0.000000 0.000000 0.000000 -0.000000 0.000000 25.906863 -0.000000 0.000000 0.000000 -0.000000 0.000000 0.000000 0.000000 0.000000 0.000000 -0.000000 0.000000 25.906863 -0.000000 0.000000 0.000000 -0.000000 0.000000 0.000000 0.000000 0.000000 0.000000
-78.211468 80.789931 341.274513 -0.127782 0.116827 -25.494518 0.165625 -0.050450 25.494721 -0.000000 0.000000 0.000000 -0.000000 0.000000 0.000000 0.000000 0.000000 0.000000 2.281362 0.315645 -0.269087 3.426566 1.941609 -1.494624 4.464707 4.398531 0.573767 -1.696113 -4.235004 -0.146460 0.000000 0.000000 0.000000 0.000000 0.000000 0.000000 -0.000000 0.000000 0.000000 -0.000000 0.000000 0.000000 1.456292 0.484603 -0.429988 1.757180 5.117585 1.858097 0.000000 0.000000 0.000000 0.000000 0.000000 0.000000 0.165625 -0.050450 25.494721 -0.000000 0.000000 0.000000 1.590380 3.178478 -0.463163 0.000000 0.000000 0.000000 0.165625 -0.050450 25.494721 -0.000000 0.000000 0.000000 -2.590283 -5.156803 0.213889 0.000000 0.000000 0.000000
-78.305209 80.755615 341.267734 -0.203248 0.220890 -25.167344 0.277890 -0.113485 25.168011 -0.000000 0.000000 0.000000 1.117558 -0.052379 -0.099395 0.000000 0.000000 0.000000 4.344976 0.708544 -0.567202 6.636133 3.463937 -2.952709 7.930469 7.824537 0.818943 -2.898405 -7.040359 -0.182323 0.000000 0.000000 0.000000 0.000000 0.000000 0.000000 0.172201 1.510775 0.211559 0.511475 -0.846565 -0.122176 2.116986 0.075464 -0.904896 2.913983 9.486227 3.237539 0.000000 0.000000 0.000000 0.000000 0.000000 0.000000 0.277890 -0.113485 25.168011 -0.000000 0.000000 0.000000 2.706013 5.400669 -0.809796 0.000000 0.000000 0.000000 0.277890 -0.113485 25.168011 -0.000000 0.000000 0.000000 -4.984681 -9.872577 0.257724 0.000000 0.000000 0.000000
-78.346829 80.722923 341.284163 -0.226461 0.312220 -24.925028 0.336949 -0.187699 24.926197 -0.000000 0.000000 0.000000 1.562355 -0.112204 -0.132486 0.000000 0.000000 0.000000 6.163858 1.181598 -0.895208 9.460549 4.538924 -4.236325 10.259878 10.051740 1.052253 -3.512254 -8.287737 -0.362926 0.000000 0.000000 0.000000 0.000000 0.000000 0.000000 0.337781 2.140151 0.308104 0.752360 -1.224693 -0.194108 2.903511 -0.168683 -1.290573 3.564960 13.000516 4.225344 0.000000 0.000000 0.000000 0.000000 0.000000 0.000000 0.336949 -0.187699 24.926197 -0.000000 0.000000 0.000000 3.405657 6.823551 -1.013763 0.000000 0.000000 0.000000 0.336949 -0.187699 24.926197 -0.000000 0.000000 0.000000 -7.029616 -13.802113 0.208111 0.000000 0.000000 0.000000
-78.336328 80.691853 341.323799 -0.197467 0.390844 -24.767028 0.343043 -0.272165 24.768516 -0.000000 0.000000 0.000000 1.931967 -0.194220 -0.154360 0.000000 0.000000 0.000000 7.714984 1.737719 -1.252785 11.792579 5.179851 -5.236234 11.680306 11.190182 1.449836 -3.704460 -8.157509 -0.874946 0.000000 0.000000 0.000000 0.000000 0.000000 0.000000 0.556687 2.686163 0.397777 0.986767 -1.569428 -0.273425 3.452538 -0.626829 -1.614845 3.810520 15.641974 4.896418 0.000000 0.000000 0.000000 0.000000 0.000000 0.000000 0.343043 -0.272165 24.768516 -0.000000 0.000000 0.000000 3.726164 7.547113 -1.062704 0.000000 0.000000 0.000000 0.343043 -0.272165 24.768516 -0.000000 0.000000 0.000000 -8.577867 -16.676728 0.170462 0.000000 0.000000 0.000000
-78.273705 80.662406 341.386642 -0.116293 0.456783 -24.692589 0.296485 -0.366432 24.694000 -0.000000 0.000000 0.000000 2.226840 -0.298370 -0.164991 0.000000 0.000000 0.000000 8.978984 2.379966 -1.638283 13.581783 5.419770 -5.880655 12.526991 11.441850 2.058639 -3.667191 -6.889400 -1.824362 0.000000 0.000000 0.000000 0.000000 0.000000 0.000000 0.829191 3.149281 0.480323 1.218013 -1.879420 -0.360527 3.728083 -1.306184 -1.867507 3.732941 17.419227 5.305016 0.000000 0.000000 0.000000 0.000000 0.000000 0.000000 0.296485 -0.366432 24.694000 -0.000000 0.000000 0.000000 3.685556 7.620408 -0.950483 0.000000 0.000000 0.000000 0.296485 -0.366432 24.694000 -0.000000 0.000000 0.000000 -9.510595 -18.323018 0.247039 0.000000 0.000000 0.000000
-78.138730 80.649847 341.470026 0.086674 0.490531 -24.821829 0.127259 -0.481600 24.821993 -0.000000 0.000000 0.000000 2.280274 -0.404252 -0.152301 0.000000 0.000000 0.000000 9.321954 3.191429 -2.018117 14.979688 5.693096 -6.168158 15.237205 10.299428 3.335310 -3.739976 -3.120676 -4.298216 0.000000 0.000000 0.000000 0.000000 0.000000 0.000000 1.192153 3.554649 0.561911 1.534057 -2.160608 -0.466549 3.630368 -2.564680 -2.069331 3.208882 16.845722 5.218604 0.000000 0.000000 0.000000 0.000000 0.000000 0.000000 0.127259 -0.481600 24.821993 0.698729 0.437431 0.044543 4.606219 9.945272 -1.781171 0.000000 0.000000 0.000000 0.127259 -0.481600 24.821993 -0.000000 0.000000 0.000000 -7.710335 -14.589247 1.101317 0.000000 0.000000 0.000000
-77.957178 80.624621 341.582998 0.304364 0.522704 -24.947520 -0.055503 -0.602307 24.945840 -0.000000 0.000000 0.000000 2.395837 -0.539968 -0.140215 0.000000 0.000000 0.000000 9.739189 4.073676 -2.442451 15.780052 4.843124 -5.831154 15.860009 10.234624 3.687162 -3.528173 -2.523858 -4.824225 0.000000 0.000000 0.000000 0.000000 0.000000 0.000000 1.635747 3.768677 0.625965 1.829237 -2.294718 -0.575098 2.873135 -3.829145 -2.081561 3.677241 17.329958 5.047782 0.000000 0.000000 0.000000 0.000000 0.000000 0.000000 -1.029186 -1.000579 25.080487 1.768584 0.441116 -0.109470 1.145337 4.061336 0.000567 0.000000 0.000000 0.000000 -0.055503 -0.602307 24.945840 -0.000000 0.000000 0.000000 -6.346457 -11.793222 1.403436 0.000000 0.000000 0.000000
-77.729087 80.594308 341.725273 0.509096 0.586161 -25.077154 -0.212697 -0.746670 25.073164 0.781741 0.455737 0.043336 1.879808 -1.316217 -0.138544 0.000000 0.000000 0.000000 9.613003 4.538737 -2.887871 16.085637 3.507197 -5.173982 15.602179 10.342239 3.742042 -3.564731 -0.812610 -5.950711 0.000000 0.000000 0.000000 0.000000 0.000000 0.000000 1.312475 3.504317 0.654063 2.057957 -2.514092 -0.698937 2.346976 -4.664402 -2.112171 1.829336 15.829658 4.917028 0.000000 0.000000 0.000000 0.000000 0.000000 0.000000 -1.373123 -1.243160 25.234427 1.884559 0.516667 -0.170462 1.942095 4.864680 -0.548367 0.000000 0.000000 0.000000 -1.460182 -0.691348 25.012154 1.106973 -0.577656 0.050936 -6.595721 -12.094435 1.706322 0.000000 0.000000 0.000000
-77.468987 80.564032 341.878500 0.692540 0.662634 -25.172777 0.107200 -0.080919 25.187041 0.174778 -0.057399 0.040825 2.031424 -1.724995 -0.106826 0.000000 0.000000 0.000000 10.132381 5.427891 -3.379962 15.429333 2.121510 -4.259571 12.776017 9.280928 4.081918 -1.823436 0.834712 -6.346441 0.000000 0.000000 0.000000 0.000000 0.000000 0.000000 1.519463 3.688430 0.700564 2.229492 -2.863505 -0.817980 1.543918 -5.492105 -2.027165 1.075993 14.551852 4.565715 0.000000 0.000000 0.000000 0.000000 0.000000 0.000000 -1.599382 -1.460632 25.343189 1.375869 -0.025276 -0.202583 0.049865 1.140310 0.748215 0.000000 0.000000 0.000000 -2.012556 -0.810168 25.081304 1.474458 -0.783195 0.070050 -6.595265 -11.779926 2.213520 0.000000 0.000000 0.000000
-77.198000 80.530703 342.033895 0.846112 0.744213 -25.201967 0.106770 -0.118186 25.218770 0.167571 -0.070522 0.046150 2.131574 -2.054935 -0.080567 0.000000 0.000000 0.000000 10.594148 6.229329 -3.834050 13.508647 0.238435 -2.938620 9.862693 7.950642 4.147262 0.813113 0.236271 -5.105836 0.000000 0.000000 0.000000 0.000000 0.000000 0.000000 1.631614 3.793904 0.729624 2.263302 -3.162706 -0.905745 1.316870 -6.010680 -2.031495 -0.856115 13.541902 4.506750 0.000000 0.000000 0.000000 0.000000 0.000000 0.000000 -1.733772 -1.652440 25.379451 1.425900 0.008093 -0.217247 -1.541529 -0.703636 2.243609 0.000000 0.000000 0.000000 -2.422809 -0.952834 25.086258 1.753191 -0.910359 0.085874 -7.237328 -12.940274 2.393501 0.000000 0.000000 0.000000
-76.931134 80.501262 342.183989 0.965904 0.826001 -25.201214 0.119563 -0.152058 25.220133 0.169264 -0.086305 0.051435 2.224191 -2.281060 -0.068570 0.000000 0.000000 0.000000 10.992991 6.856031 -4.205734 11.960286 -1.172384 -1.985940 4.695829 5.736846 4.523894 5.401911 2.024295 -5.083369 0.000000 0.000000 0.000000 0.000000 0.000000 0.000000 1.652648 3.872576 0.746251 2.293678 -3.501574 -0.983072 1.057605 -6.997231 -2.030696 -2.502365 11.810004 4.159226 0.000000 0.000000 0.000000 0.000000 0.000000 0.000000 -1.744511 -1.845501 25.387551 1.350710 0.906121 -0.373912 -2.769926 -3.191729 3.465371 0.000000 0.000000 0.000000 -2.675203 -1.066168 25.068918 1.910321 -0.996209 0.094862 -8.328107 -15.030500 2.463754 0.000000 0.000000 0.000000
